# xmcd
#
# Track frame offsets:
#	150
#	19025
#	31075
#	46730
#	66412
#	79427
#	97100
#	111190
#	124995
#	143870
#	156585
#	175617
#	190175
#	203665
#	220600
#	231537
#	242387
#	254827
#	271877
#	288652
#	304027
#	320225
#
# Disc length: 4465 seconds
#
# Revision: 2
# Processed by: cddbd v1.5.2PL0 Copyright (c) Steve Scherf et al.
# Submitted via: dBpowerAMP V4.0
#
DISCID=4c116f16
DTITLE=Various Artist - The All Time Greatest Country Songs Of The Mille
DYEAR=1998
DGENRE=Country
TTITLE0=Kenny Rogers and Dolly Parton - Islands in the stream
TTITLE1=Dolly Parton - Jolene
TTITLE2=Tanya Tucker - Down to my last teardrop
TTITLE3=Mavericks - Dance the night away
TTITLE4=Mary Chapin Carpenter - Let me into your heart
TTITLE5=Judds - Love can build a bridge
TTITLE6=Elvis Costello and the Attractions - A good year for the roses
TTITLE7=Don Williams - I'm just a country boy
TTITLE8=Nancy Griffith - From a distance
TTITLE9=Bobby Bare - Detroit city
TTITLE10=Bobbie Gentry - Ode to Billy Joe
TTITLE11=Bellamy Brothers - If i said you have a beautiful body
TTITLE12=Kenny Rogers - I will always love you
TTITLE13=Mac Davis - Memories
TTITLE14=Neil Diamond - Kentucky woman
TTITLE15='Roger Miller - King of the road
TTITLE16=Johnny Cash and June Carter - Jackson
TTITLE17=Johnny Cash - Riders in the sky
TTITLE18=Tony Joe White - Polak salad Annie
TTITLE19=Billy Ray Cyrus - Achy breaky heart
TTITLE20=Charlie Daniels Band - The devil went down to Georgia
TTITLE21=Eric Weissberg and Steve Mandell - Duelling banjos
EXTD=
EXTT0=
EXTT1=
EXTT2=
EXTT3=
EXTT4=
EXTT5=
EXTT6=
EXTT7=
EXTT8=
EXTT9=
EXTT10=
EXTT11=
EXTT12=
EXTT13=
EXTT14=
EXTT15=
EXTT16=
EXTT17=
EXTT18=
EXTT19=
EXTT20=
EXTT21=
PLAYORDER=
